<svg width="535" height="405" viewBox="0 0 535 405" fill="none" xmlns="http://www.w3.org/2000/svg">
<g clip-path="url(#clip0_338_1784)">
<path d="M7.91154 329.347H26.7859L34.6103 366.216H34.7847L53.0924 329.347H71.8797L63.9681 385.902H51.4796L57.5604 342.572H57.4078L36.4629 385.902H26.9385L18.7001 342.572H18.5475L12.4667 385.902H0L7.91154 329.347Z" fill="white"/>
<path d="M95.3963 392.166C94.3284 394.341 93.2169 396.06 92.3451 397.67C91.4453 399.191 90.296 400.552 88.9451 401.694C87.5564 402.824 85.956 403.667 84.2374 404.173C81.9266 404.778 79.5422 405.056 77.154 405C74.1875 405.018 71.2394 404.533 68.436 403.564L71.4001 393.754C73.0715 394.559 74.9062 394.968 76.7617 394.951C77.896 394.973 79.0272 394.826 80.1181 394.516C80.9677 394.249 81.7539 393.812 82.4284 393.232C83.0896 392.649 83.6558 391.966 84.1066 391.209C84.5861 390.404 85.131 389.469 85.7194 388.403L86.9181 386.228L75.3886 347.074H88.3566L94.7425 372.677H94.9169L107.057 347.074H119.371L95.3963 392.166Z" fill="white"/>
<path d="M195.413 381.856C191.551 383.729 187.475 385.124 183.274 386.011C179.194 386.86 175.039 387.29 170.872 387.294C166.789 387.329 162.736 386.591 158.929 385.119C155.549 383.897 152.519 381.872 150.1 379.219C147.681 376.566 145.946 373.365 145.045 369.892C144.011 365.878 143.818 361.694 144.479 357.602C145.052 353.29 146.427 349.122 148.532 345.313C150.494 341.746 153.094 338.568 156.204 335.937C159.306 333.324 162.869 331.311 166.709 329.999C170.738 328.562 174.985 327.827 179.263 327.824C183.418 327.773 187.559 328.322 191.556 329.455C195.074 330.486 198.255 332.43 200.775 335.089L190.618 344.66C189.228 342.943 187.451 341.579 185.431 340.679C182.941 339.68 180.268 339.213 177.585 339.309C175.043 339.287 172.52 339.752 170.153 340.679C167.909 341.555 165.847 342.838 164.072 344.464C162.295 346.127 160.821 348.085 159.713 350.25C158.593 352.536 157.856 354.991 157.534 357.515C157.148 359.945 157.229 362.425 157.773 364.824C158.248 366.919 159.186 368.881 160.52 370.567C161.857 372.216 163.578 373.515 165.532 374.351C167.747 375.304 170.14 375.771 172.55 375.722C174.987 375.752 177.416 375.438 179.765 374.786C181.468 374.316 183.124 373.69 184.712 372.916L185.998 363.737H175.841L177.52 352.251H199.663L195.413 381.856Z" fill="white"/>
<path d="M209.732 347.075H221.741L220.848 353.296H221.022C222.375 351.143 224.173 349.304 226.297 347.901C228.368 346.667 230.75 346.048 233.162 346.117H235.341C235.988 346.176 236.629 346.286 237.259 346.444L235.734 357.32C234.111 356.778 232.41 356.506 230.699 356.515C228.786 356.45 226.88 356.776 225.098 357.472C223.733 358.043 222.544 358.967 221.654 360.147C220.757 361.388 220.092 362.781 219.693 364.259C219.221 365.988 218.865 367.746 218.625 369.522L216.445 385.728H204.458L209.732 347.075Z" fill="white"/>
<path d="M273.069 379.159C270.825 381.598 268.082 383.527 265.026 384.814C262.064 386.113 258.868 386.794 255.633 386.815C252.821 386.846 250.029 386.36 247.394 385.38C245.015 384.506 242.867 383.1 241.117 381.269C239.396 379.413 238.141 377.177 237.456 374.743C236.656 372.026 236.477 369.164 236.933 366.368C237.309 363.417 238.272 360.569 239.766 357.994C241.178 355.506 243.032 353.295 245.237 351.468C247.457 349.668 249.981 348.276 252.69 347.357C255.494 346.389 258.442 345.903 261.408 345.922C263.885 345.953 266.327 346.501 268.579 347.531C270.641 348.431 272.435 349.848 273.788 351.642C275.188 353.581 276.127 355.813 276.534 358.168C277.051 360.932 277.096 363.764 276.665 366.542L276.098 370.306H248.353C248.421 372.361 249.271 374.313 250.729 375.765C251.484 376.46 252.37 376.998 253.336 377.349C254.301 377.7 255.326 377.857 256.352 377.81C258.163 377.848 259.95 377.389 261.517 376.483C263.032 375.571 264.392 374.425 265.549 373.09L273.069 379.159ZM265.31 362.062C265.49 361.159 265.471 360.228 265.252 359.333C265.034 358.439 264.622 357.603 264.046 356.885C263.43 356.155 262.653 355.578 261.775 355.2C260.897 354.823 259.943 354.655 258.989 354.709C257.762 354.695 256.542 354.909 255.393 355.34C254.387 355.743 253.447 356.292 252.603 356.972C251.815 357.636 251.138 358.422 250.598 359.299C250.074 360.143 249.698 361.07 249.486 362.04L265.31 362.062Z" fill="white"/>
<path d="M318.969 379.159C316.725 381.598 313.983 383.527 310.926 384.814C307.964 386.112 304.768 386.792 301.533 386.815C298.722 386.846 295.929 386.36 293.294 385.38C290.915 384.506 288.767 383.1 287.017 381.269C285.298 379.409 284.037 377.175 283.334 374.743C282.552 372.022 282.381 369.163 282.833 366.369C283.209 363.417 284.172 360.569 285.666 357.994C287.078 355.506 288.932 353.295 291.137 351.468C293.349 349.667 295.866 348.275 298.569 347.357C301.373 346.393 304.321 345.908 307.287 345.922C309.809 345.874 312.313 346.363 314.632 347.357C316.693 348.258 318.488 349.674 319.841 351.468C321.24 353.407 322.179 355.639 322.587 357.994C323.093 360.759 323.138 363.589 322.717 366.369L322.151 370.132H294.253C294.321 372.187 295.171 374.139 296.629 375.591C297.385 376.286 298.271 376.824 299.236 377.175C300.201 377.526 301.226 377.683 302.252 377.636C304.063 377.674 305.85 377.215 307.417 376.309C308.932 375.397 310.293 374.252 311.45 372.916L318.969 379.159ZM311.21 362.062C311.392 361.157 311.371 360.224 311.149 359.329C310.926 358.434 310.508 357.599 309.924 356.885C309.314 356.154 308.541 355.576 307.666 355.198C306.792 354.82 305.841 354.653 304.889 354.709C303.662 354.695 302.442 354.909 301.293 355.34C300.285 355.738 299.344 356.288 298.503 356.972C297.71 357.631 297.032 358.417 296.498 359.299C295.974 360.143 295.598 361.07 295.387 362.04L311.21 362.062Z" fill="white"/>
<path d="M332.634 347.074H344.163L343.444 352.338H343.597C344.143 351.537 344.787 350.806 345.515 350.163C346.346 349.397 347.259 348.726 348.239 348.162C349.331 347.56 350.486 347.079 351.683 346.726C353.009 346.353 354.381 346.17 355.758 346.183C358.233 346.065 360.7 346.542 362.951 347.575C364.618 348.414 365.965 349.773 366.787 351.447C367.627 353.276 368.065 355.264 368.073 357.276C368.107 359.707 367.946 362.136 367.593 364.541L364.629 385.923H352.642L355.279 366.934C355.431 365.803 355.562 364.65 355.671 363.454C355.784 362.346 355.703 361.227 355.431 360.147C355.206 359.178 354.67 358.307 353.906 357.668C352.913 356.958 351.702 356.619 350.484 356.711C349.14 356.662 347.805 356.954 346.605 357.559C345.593 358.061 344.724 358.809 344.076 359.734C343.428 360.7 342.942 361.766 342.638 362.888C342.304 364.093 342.064 365.322 341.919 366.564L339.194 385.88H327.207L332.634 347.074Z" fill="white"/>
<path d="M415.651 340.375H399.501L401.005 329.347H445.793L444.268 340.375H428.118L421.732 385.858H409.243L415.651 340.375Z" fill="white"/>
<path d="M440.759 347.075H452.746L451.874 353.296H452.027C453.38 351.143 455.178 349.304 457.301 347.901C459.38 346.664 461.769 346.045 464.188 346.117H466.259C466.906 346.175 467.547 346.284 468.177 346.444L466.651 357.32C465.847 357.053 465.024 356.849 464.188 356.711C463.338 356.576 462.478 356.511 461.617 356.515C459.704 356.452 457.798 356.778 456.015 357.472C454.656 358.043 453.474 358.967 452.593 360.147C451.696 361.388 451.031 362.781 450.632 364.259C450.153 365.987 449.789 367.746 449.542 369.523L447.363 385.728H435.31L440.759 347.075Z" fill="white"/>
<path d="M473.451 347.075H485.46L479.99 385.858H468.002L473.451 347.075ZM474.17 334.85C474.335 333.903 474.659 332.991 475.129 332.153C475.599 331.327 476.212 330.591 476.938 329.977C477.667 329.357 478.491 328.857 479.379 328.498C480.264 328.135 481.212 327.95 482.169 327.955C483.042 327.919 483.911 328.084 484.709 328.439C485.506 328.794 486.211 329.328 486.768 329.999C487.338 330.666 487.752 331.451 487.982 332.298C488.212 333.144 488.252 334.03 488.097 334.893C487.986 335.851 487.682 336.775 487.204 337.612C486.742 338.437 486.137 339.174 485.417 339.788C484.684 340.404 483.861 340.903 482.976 341.267C482.085 341.637 481.129 341.829 480.164 341.832C479.254 341.838 478.354 341.645 477.527 341.267C476.769 340.918 476.093 340.414 475.543 339.788C474.999 339.156 474.597 338.414 474.367 337.612C474.119 336.714 474.052 335.775 474.17 334.85Z" fill="white"/>
<path d="M495.246 347.074H506.296L505.577 352.164H505.729C506.363 351.352 507.095 350.622 507.909 349.989C508.847 349.243 509.854 348.587 510.916 348.032C512.054 347.445 513.243 346.965 514.469 346.596C515.766 346.228 517.109 346.045 518.457 346.052C521.084 345.996 523.692 346.5 526.108 347.531C528.237 348.45 530.114 349.868 531.578 351.664C533.05 353.526 534.079 355.698 534.586 358.016C535.136 360.672 535.203 363.406 534.782 366.086C534.412 368.779 533.625 371.399 532.45 373.851C531.34 376.236 529.87 378.437 528.091 380.377C526.321 382.275 524.215 383.83 521.879 384.966C519.486 386.115 516.863 386.702 514.208 386.685C511.869 386.71 509.544 386.319 507.342 385.532C505.335 384.832 503.653 383.424 502.613 381.573H502.46L499.125 404.086H487.138L495.246 347.074ZM503.572 366.455C503.307 367.679 503.303 368.943 503.558 370.168C503.813 371.394 504.323 372.552 505.054 373.568C505.871 374.515 506.902 375.254 508.061 375.727C509.22 376.2 510.475 376.392 511.723 376.287C514.473 376.413 517.164 375.461 519.22 373.634C521.206 371.753 522.464 369.235 522.773 366.521C523.038 365.3 523.041 364.037 522.781 362.815C522.522 361.592 522.007 360.439 521.269 359.43C520.437 358.483 519.394 357.745 518.225 357.273C517.055 356.801 515.792 356.608 514.534 356.711C511.795 356.606 509.125 357.583 507.102 359.43C505.131 361.288 503.868 363.771 503.528 366.455H503.572Z" fill="white"/>
<path d="M361.36 103.909C361.36 175.691 265.789 287.931 261.735 292.673C261.176 293.345 260.477 293.888 259.687 294.263C258.896 294.639 258.034 294.838 257.158 294.848C256.282 294.843 255.418 294.645 254.627 294.269C253.836 293.893 253.138 293.348 252.582 292.673C248.484 287.887 153.066 173.798 153.066 103.909C153.066 76.3278 164.044 49.876 183.586 30.3729C203.127 10.8698 229.631 -0.0869141 257.267 -0.0869141C284.903 -0.0869141 311.407 10.8698 330.949 30.3729C350.491 49.876 361.469 76.3278 361.469 103.909H361.36Z" fill="white"/>
<path d="M244.801 66.9308C241.125 69.9198 238.211 73.7366 236.301 78.0678C232.661 85.7463 230.547 95.9479 229.98 108.521C229.457 120.006 230.482 126.988 233.685 133.862C234.056 134.623 235.058 136.494 235.865 137.995C237.382 140.429 238.618 143.026 239.548 145.738C241.044 150.507 242.073 155.41 242.621 160.377L243.079 163.466L242.97 167.447V171.427H243.428L258.161 173.407L273.025 175.451H273.614L273.744 174.668C273.875 173.907 277.123 164.162 278.103 161.835C280.158 156.35 281.619 150.662 282.462 144.868C284.375 132.589 285.054 120.151 284.489 107.738C284.337 105.479 284.031 103.233 283.574 101.016C283.378 100.059 283.051 98.4059 282.855 97.2966C279.477 79.3947 273.919 69.019 265.55 65.0384C261.372 63.1941 256.709 62.744 252.255 63.7551C250.493 63.9903 248.801 64.5905 247.285 65.517C246.429 65.9369 245.599 66.4091 244.801 66.9308Z" fill="#53924F"/>
<path d="M241.357 181.172C235.734 193.745 234.622 205.339 238.175 214.561C239.056 216.614 240.175 218.556 241.509 220.347C243.009 222.32 244.962 223.903 247.204 224.963C249.446 226.024 251.911 226.529 254.39 226.438C256.789 226.323 259.113 225.572 261.125 224.263C263.868 222.639 266.155 220.35 267.772 217.607C272.262 210.581 274.311 200.205 273.875 187.371C273.884 186.779 273.825 186.188 273.7 185.61C273.548 185.61 266.879 184.348 260.449 183.282C251.84 181.846 247.546 181.107 243.013 180.106L242.032 179.889L241.357 181.172Z" fill="#53924F"/>
</g>
<defs>
<clipPath id="clip0_338_1784">
<rect width="535" height="405" fill="white"/>
</clipPath>
</defs>
</svg>
