<svg width="73" height="73" viewBox="0 0 73 73" fill="none" xmlns="http://www.w3.org/2000/svg">
<path id="Vector" d="M12.9575 57.0312C16.79 54.5979 20.5769 52.7577 24.3181 51.5106C28.0594 50.2635 32.12 49.64 36.5 49.64C40.88 49.64 44.9558 50.2635 48.7275 51.5106C52.4992 52.7577 56.3013 54.5979 60.1338 57.0312C62.8104 53.7463 64.7115 50.4308 65.8369 47.085C66.9623 43.7392 67.525 40.2108 67.525 36.5C67.525 27.6792 64.5594 20.3031 58.6281 14.3719C52.6969 8.44063 45.3208 5.475 36.5 5.475C27.6792 5.475 20.3031 8.44063 14.3719 14.3719C8.44063 20.3031 5.475 27.6792 5.475 36.5C5.475 40.2108 6.05292 43.7392 7.20875 47.085C8.36458 50.4308 10.2808 53.7463 12.9575 57.0312ZM36.5 39.2375C32.9717 39.2375 30.006 38.036 27.6031 35.6331C25.2002 33.2302 23.9988 30.2646 23.9988 26.7362C23.9988 23.2079 25.2002 20.2423 27.6031 17.8394C30.006 15.4365 32.9717 14.235 36.5 14.235C40.0283 14.235 42.994 15.4365 45.3969 17.8394C47.7998 20.2423 49.0013 23.2079 49.0013 26.7362C49.0013 30.2646 47.7998 33.2302 45.3969 35.6331C42.994 38.036 40.0283 39.2375 36.5 39.2375ZM36.5 73C31.39 73 26.6146 72.0419 22.1737 70.1256C17.7329 68.2094 13.87 65.5935 10.585 62.2781C7.3 58.9627 4.71458 55.0846 2.82875 50.6438C0.942917 46.2029 0 41.4579 0 36.4088C0 31.4204 0.958125 26.7058 2.87437 22.265C4.79062 17.8242 7.40646 13.9613 10.7219 10.6763C14.0373 7.39125 17.9154 4.79062 22.3563 2.87437C26.7971 0.958125 31.5421 0 36.5913 0C41.5796 0 46.2942 0.958125 50.735 2.87437C55.1758 4.79062 59.0388 7.39125 62.3238 10.6763C65.6088 13.9613 68.2094 17.8242 70.1256 22.265C72.0419 26.7058 73 31.4508 73 36.5C73 41.4883 72.0419 46.2029 70.1256 50.6438C68.2094 55.0846 65.6088 58.9627 62.3238 62.2781C59.0388 65.5935 55.1758 68.2094 50.735 70.1256C46.2942 72.0419 41.5492 73 36.5 73Z" fill="white"/>
</svg>
