<svg width="87" height="87" viewBox="0 0 87 87" fill="none" xmlns="http://www.w3.org/2000/svg">
<g id="Group 75">
<g id="Group 73">
<circle id="Avatar" cx="43.5" cy="43.5" r="43.5" fill="#CDCDCD"/>
<g id="Group 72">
<path id="Vector" d="M66.5295 30.514V62.6912C66.5295 63.7147 66.1457 64.6103 65.3781 65.3779C64.6104 66.1456 63.7148 66.5294 62.6913 66.5294H24.3089C23.2854 66.5294 22.3898 66.1456 21.6222 65.3779C20.8545 64.6103 20.4707 63.7147 20.4707 62.6912V24.3088C20.4707 23.2853 20.8545 22.3897 21.6222 21.6221C22.3898 20.8544 23.2854 20.4706 24.3089 20.4706H56.4861L66.5295 30.514ZM62.6913 32.2412L54.7589 24.3088H24.3089V62.6912H62.6913V32.2412ZM43.5001 58.5331C45.3339 58.5331 46.9012 57.8827 48.202 56.582C49.5027 55.2812 50.1531 53.714 50.1531 51.8801C50.1531 50.0463 49.5027 48.479 48.202 47.1783C46.9012 45.8776 45.3339 45.2272 43.5001 45.2272C41.6663 45.2272 40.099 45.8776 38.7983 47.1783C37.4975 48.479 36.8472 50.0463 36.8472 51.8801C36.8472 53.714 37.4975 55.2812 38.7983 56.582C40.099 57.8827 41.6663 58.5331 43.5001 58.5331ZM27.6994 36.8471H50.6008V27.6993H27.6994V36.8471ZM24.3089 32.2412V62.6912V24.3088V32.2412Z" fill="black"/>
</g>
</g>
</g>
</svg>
