<svg width="57" height="57" viewBox="0 0 57 57" fill="none" xmlns="http://www.w3.org/2000/svg">
<path d="M10.1175 44.5312C13.11 42.6312 16.0669 41.1944 18.9881 40.2206C21.9094 39.2469 25.08 38.76 28.5 38.76C31.92 38.76 35.1025 39.2469 38.0475 40.2206C40.9925 41.1944 43.9613 42.6312 46.9538 44.5312C49.0438 41.9662 50.5281 39.3775 51.4069 36.765C52.2856 34.1525 52.725 31.3975 52.725 28.5C52.725 21.6125 50.4094 15.8531 45.7781 11.2219C41.1469 6.59062 35.3875 4.275 28.5 4.275C21.6125 4.275 15.8531 6.59062 11.2219 11.2219C6.59062 15.8531 4.275 21.6125 4.275 28.5C4.275 31.3975 4.72625 34.1525 5.62875 36.765C6.53125 39.3775 8.0275 41.9662 10.1175 44.5312ZM28.5 30.6375C25.745 30.6375 23.4294 29.6994 21.5531 27.8231C19.6769 25.9469 18.7387 23.6312 18.7387 20.8762C18.7387 18.1212 19.6769 15.8056 21.5531 13.9294C23.4294 12.0531 25.745 11.115 28.5 11.115C31.255 11.115 33.5706 12.0531 35.4469 13.9294C37.3231 15.8056 38.2612 18.1212 38.2612 20.8762C38.2612 23.6312 37.3231 25.9469 35.4469 27.8231C33.5706 29.6994 31.255 30.6375 28.5 30.6375ZM28.5 57C24.51 57 20.7812 56.2519 17.3137 54.7556C13.8462 53.2594 10.83 51.2169 8.265 48.6281C5.7 46.0394 3.68125 43.0112 2.20875 39.5437C0.73625 36.0762 0 32.3713 0 28.4288C0 24.5338 0.748125 20.8525 2.24437 17.385C3.74062 13.9175 5.78312 10.9012 8.37187 8.33625C10.9606 5.77125 13.9887 3.74062 17.4562 2.24437C20.9237 0.748125 24.6287 0 28.5712 0C32.4662 0 36.1475 0.748125 39.615 2.24437C43.0825 3.74062 46.0988 5.77125 48.6637 8.33625C51.2288 10.9012 53.2594 13.9175 54.7556 17.385C56.2519 20.8525 57 24.5575 57 28.5C57 32.395 56.2519 36.0762 54.7556 39.5437C53.2594 43.0112 51.2288 46.0394 48.6637 48.6281C46.0988 51.2169 43.0825 53.2594 39.615 54.7556C36.1475 56.2519 32.4425 57 28.5 57Z" fill="black"/>
</svg>
